<?xml version="1.0" standalone="no"?>
<!DOCTYPE svg PUBLIC "-//W3C//DTD SVG 20010904//EN"
 "http://www.w3.org/TR/2001/REC-SVG-20010904/DTD/svg10.dtd">
<svg version="1.0" xmlns="http://www.w3.org/2000/svg"
 width="1147.891pt" height="507.209pt" viewBox="23.960 74.506 1147.891 507.209"
 preserveAspectRatio="xMidYMid meet">

<g transform="translate(0.000000,645.000000) scale(0.100000,-0.100000)"
fill="#ffffff" stroke="none">
<path d="M5597 5699 c-507 -39 -942 -190 -1284 -445 -117 -87 -295 -266 -384
-383 -82 -110 -189 -307 -233 -429 -14 -40 -26 -75 -26 -78 0 -2 123 -4 273
-4 l273 0 32 99 c74 225 193 422 347 576 302 302 732 450 1260 432 284 -10
509 -59 766 -169 141 -60 236 -115 263 -151 14 -19 20 -53 27 -149 5 -67 12
-170 17 -228 l7 -105 74 0 c56 0 76 4 81 15 5 8 20 116 35 240 14 124 38 286
51 360 14 74 23 144 20 155 -6 22 -14 26 -201 91 -228 79 -497 137 -765 164
-150 15 -495 20 -633 9z"/>
<path d="M9480 5694 c-508 -60 -885 -228 -1204 -534 -173 -167 -283 -313 -379
-505 -38 -76 -117 -272 -117 -290 0 -3 114 -5 254 -5 l254 0 17 78 c124 556
500 923 1045 1018 412 71 874 -24 1189 -246 214 -151 399 -422 505 -740 l35
-105 297 -3 296 -2 -7 37 c-13 73 -77 249 -125 346 -250 505 -703 816 -1355
929 -98 17 -171 21 -395 23 -151 2 -291 1 -310 -1z"/>
<path d="M253 5623 c-9 -3 -13 -29 -13 -78 0 -87 -9 -81 140 -90 234 -14 314
-36 345 -95 27 -51 34 -156 41 -582 l7 -418 254 0 253 0 0 278 c1 325 15 691
29 705 5 5 49 19 98 32 317 82 646 78 869 -12 233 -93 392 -299 433 -561 15
-97 13 -251 -4 -347 -8 -44 -15 -83 -15 -87 0 -5 110 -8 244 -8 l245 0 21 57
c47 126 63 221 63 363 0 105 -5 153 -22 215 -66 252 -257 460 -500 546 -221
78 -389 94 -876 83 -452 -11 -1028 -12 -1360 -2 -132 3 -246 4 -252 1z"/>
<path d="M925 4275 c-191 -36 -339 -135 -407 -273 -29 -58 -33 -77 -33 -143 0
-67 3 -79 28 -112 35 -47 65 -66 110 -74 59 -9 105 5 152 48 48 44 68 84 63
125 -4 40 -25 41 -41 2 -20 -47 -59 -79 -104 -85 -32 -4 -42 -1 -62 21 -22 23
-23 32 -19 94 15 204 250 378 485 359 122 -9 197 -72 209 -174 17 -139 -87
-273 -225 -290 -28 -3 -51 -9 -51 -13 0 -40 133 -38 223 3 177 81 234 290 114
415 -88 93 -263 131 -442 97z"/>
<path d="M8620 4280 c-204 -43 -391 -262 -430 -504 -30 -186 60 -322 198 -301
58 9 124 69 142 132 22 72 -8 102 -35 36 -19 -45 -41 -70 -78 -90 -106 -55
-132 146 -45 350 77 181 202 310 321 332 45 9 79 -10 103 -57 14 -26 16 -51
11 -138 -11 -208 -89 -383 -234 -521 -88 -85 -108 -94 -182 -81 -71 13 -117 2
-127 -31 -5 -15 0 -26 17 -40 20 -16 34 -18 89 -13 64 7 69 5 170 -43 151 -71
224 -94 302 -95 57 -1 70 2 93 24 33 30 55 78 55 120 0 37 -14 38 -43 4 -34
-39 -89 -41 -231 -9 -66 15 -131 31 -145 36 -25 10 -25 11 28 41 123 71 247
220 302 362 104 271 29 479 -178 491 -32 2 -78 0 -103 -5z"/>
<path d="M5620 4269 c-127 -18 -253 -88 -362 -201 -67 -69 -67 -69 -96 -54
-40 20 -100 90 -108 123 -14 64 -18 65 -63 27 -66 -55 -21 -144 100 -198 35
-17 58 -33 55 -39 -49 -111 -60 -149 -64 -223 -9 -163 56 -254 183 -254 49 0
108 20 137 47 32 29 28 8 -11 -58 -81 -135 -169 -207 -238 -196 -31 5 -33 4
-33 -21 0 -39 33 -86 73 -105 43 -21 67 -21 111 -3 82 34 148 135 270 413 45
104 98 213 117 243 19 30 39 61 43 68 5 9 -7 12 -51 12 l-58 0 -49 -73 c-131
-192 -227 -263 -311 -231 -63 24 -60 206 4 332 21 41 22 42 65 36 23 -4 83 -1
132 6 212 28 349 113 362 226 10 94 -72 143 -208 123z m103 -70 c25 -40 -35
-125 -121 -172 -59 -32 -158 -57 -230 -57 l-53 0 21 30 c32 45 107 117 158
153 89 60 201 84 225 46z"/>
<path d="M1145 4142 c-70 -33 -140 -121 -213 -271 -145 -298 -217 -388 -305
-379 -26 2 -33 -1 -35 -19 -5 -34 25 -82 62 -100 55 -26 102 -11 161 50 60 62
101 138 188 348 106 254 148 324 207 349 17 7 29 18 27 24 -6 18 -49 17 -92
-2z"/>
<path d="M3265 3961 l-69 -149 -29 24 c-73 62 -205 -4 -278 -138 -30 -56 -34
-71 -34 -141 0 -74 2 -80 28 -103 38 -32 91 -32 139 1 21 14 43 35 49 47 11
21 12 20 25 -12 19 -44 41 -59 89 -60 52 0 86 23 140 96 57 75 69 99 62 118
-10 25 -22 19 -57 -31 -52 -75 -92 -113 -117 -113 -45 0 -28 53 121 374 58
126 106 231 106 233 0 1 -24 3 -53 3 l-54 0 -68 -149z m-126 -154 c26 -32 23
-73 -7 -133 -38 -75 -105 -160 -132 -169 -72 -23 -61 108 19 234 44 69 95 97
120 68z"/>
<path d="M6792 4057 c-6 -7 -29 -52 -51 -100 -34 -73 -44 -87 -64 -87 -28 0
-47 -17 -47 -42 0 -12 7 -18 21 -18 13 0 19 -5 16 -12 -3 -7 -24 -55 -47 -106
-59 -133 -65 -197 -20 -242 27 -27 91 -26 141 2 36 20 84 75 133 152 16 26 17
30 2 44 -8 9 -17 14 -19 11 -2 -2 -20 -28 -41 -57 -45 -62 -94 -102 -126 -102
-21 0 -22 3 -17 39 3 22 28 92 57 155 51 113 53 116 84 116 36 0 56 15 56 42
0 13 -8 18 -30 18 l-29 0 36 78 c19 42 38 87 40 100 5 20 2 22 -40 22 -24 0
-49 -6 -55 -13z"/>
<path d="M10653 4062 c-6 -4 -30 -49 -53 -100 -39 -83 -46 -92 -70 -92 -19 0
-30 -7 -38 -25 -16 -34 -16 -35 12 -35 l24 0 -44 -100 c-58 -131 -69 -180 -50
-224 8 -19 23 -39 34 -45 29 -15 88 -14 121 3 33 18 92 82 130 140 l27 43 0
-51 c0 -63 27 -122 65 -141 33 -18 121 -18 166 -2 55 21 117 72 166 137 44 58
47 65 32 79 -15 15 -18 13 -38 -14 -60 -85 -152 -145 -222 -145 -47 0 -67 23
-63 74 3 39 4 41 45 48 135 23 243 124 214 201 -13 35 -40 47 -101 47 -94 0
-182 -63 -235 -168 -23 -47 -28 -52 -42 -40 -13 11 -18 9 -31 -12 -33 -51
-129 -140 -152 -140 -21 0 -22 3 -18 43 3 23 27 92 55 152 48 107 50 110 83
113 58 5 85 62 30 62 -16 0 -30 2 -30 4 0 2 18 42 40 90 22 47 40 91 40 96 0
12 -79 13 -97 2z m382 -252 c7 -12 -27 -80 -51 -102 -26 -22 -104 -62 -110
-55 -10 10 37 88 76 127 39 39 72 51 85 30z"/>
<path d="M11398 4057 c-7 -8 -31 -53 -52 -100 -36 -80 -41 -87 -68 -87 -21 0
-31 -6 -38 -26 -13 -34 -13 -34 14 -34 l25 0 -39 -84 c-74 -160 -83 -225 -38
-273 25 -27 93 -31 136 -9 49 26 152 155 152 190 0 29 -23 29 -43 0 -12 -16
-44 -53 -73 -82 -39 -40 -59 -53 -76 -50 -20 3 -23 8 -20 38 2 19 27 87 56
150 50 113 52 115 86 118 58 5 85 62 30 62 -16 0 -30 2 -30 5 0 2 18 44 40 91
22 48 40 91 40 95 0 14 -87 10 -102 -4z"/>
<path d="M3580 4001 c-32 -31 -38 -59 -18 -79 18 -18 52 -14 82 9 22 17 27 28
24 58 -3 31 -7 36 -31 39 -20 2 -35 -5 -57 -27z"/>
<path d="M6474 4005 c-19 -19 -24 -34 -22 -58 3 -28 7 -32 35 -35 36 -4 69 22
79 63 14 54 -48 74 -92 30z"/>
<path d="M2036 3934 c-18 -18 -21 -45 -5 -61 11 -11 -7 -53 -78 -176 -34 -59
-42 -66 -53 -52 -18 21 -22 20 -50 -23 -38 -56 -111 -132 -128 -132 -25 0 -9
77 37 181 24 52 49 109 57 127 l15 34 -63 -3 c-48 -3 -69 1 -88 14 -74 52
-211 -23 -275 -150 -26 -50 -30 -69 -30 -136 0 -74 2 -80 28 -103 51 -44 122
-28 178 40 16 20 16 20 23 -2 21 -64 102 -82 167 -38 20 14 58 56 84 95 49 71
58 80 70 61 3 -5 10 -10 15 -10 7 0 95 140 129 208 13 25 34 25 39 -1 2 -8
-17 -57 -42 -109 -51 -105 -71 -176 -62 -213 10 -40 42 -65 81 -65 67 0 112
37 184 149 32 49 38 67 30 78 -18 21 -25 16 -58 -34 -43 -67 -106 -133 -126
-133 -28 0 -13 59 46 180 62 130 62 150 -1 198 -25 19 -49 44 -53 55 -14 38
-45 47 -71 21z m-382 -130 c37 -36 4 -145 -72 -241 -44 -55 -74 -72 -97 -53
-46 38 37 253 114 295 33 18 36 18 55 -1z"/>
<path d="M7556 3934 c-18 -18 -21 -45 -5 -61 10 -10 -37 -114 -94 -206 -21
-34 -25 -37 -36 -23 -18 22 -24 20 -44 -13 -27 -47 -117 -141 -134 -141 -27 0
-9 77 46 200 29 63 55 121 58 128 4 9 -10 12 -51 12 -34 0 -56 -4 -56 -11 0
-6 -14 1 -31 15 -79 67 -213 -3 -285 -149 -33 -67 -36 -79 -32 -141 4 -58 8
-70 32 -90 48 -42 138 -22 181 39 14 20 15 20 21 1 15 -42 46 -64 89 -64 68 0
104 32 197 172 14 20 17 21 33 8 21 -17 29 -8 105 126 29 52 58 93 64 91 24
-8 15 -49 -27 -134 -72 -143 -80 -220 -29 -259 25 -19 82 -17 118 5 34 21 86
82 129 150 24 39 25 45 11 59 -8 9 -17 14 -19 11 -1 -2 -29 -39 -61 -82 -63
-83 -91 -106 -109 -88 -15 15 4 71 63 191 29 61 46 107 43 120 -6 21 -67 80
-83 80 -5 0 -16 16 -24 35 -16 39 -44 46 -70 19z m-378 -127 c6 -6 13 -24 17
-39 13 -53 -101 -246 -156 -263 -49 -16 -62 41 -31 131 43 123 134 215 170
171z"/>
<path d="M10166 3934 c-18 -18 -21 -45 -5 -61 11 -11 -7 -53 -78 -176 -34 -59
-42 -66 -53 -52 -18 21 -22 20 -50 -23 -38 -56 -111 -132 -128 -132 -25 0 -9
77 37 181 24 52 49 109 57 127 l15 34 -63 -3 c-48 -3 -69 1 -88 14 -74 52
-211 -23 -275 -150 -26 -50 -30 -69 -30 -136 0 -74 2 -80 28 -103 51 -44 122
-28 178 40 16 20 16 20 23 -2 21 -64 102 -82 167 -38 20 14 58 56 84 95 49 71
58 80 70 61 3 -5 10 -10 15 -10 7 0 95 141 129 208 6 12 16 22 22 22 25 0 18
-39 -24 -128 -52 -111 -72 -180 -63 -217 10 -40 42 -65 81 -65 67 0 112 37
184 149 32 49 38 67 30 78 -18 21 -25 16 -58 -34 -43 -67 -106 -133 -126 -133
-28 0 -13 56 45 181 62 131 62 150 0 197 -25 19 -49 44 -53 55 -14 38 -45 47
-71 21z m-382 -130 c37 -36 4 -145 -72 -241 -44 -55 -74 -72 -97 -53 -46 38
37 253 114 295 33 18 36 18 55 -1z"/>
<path d="M3833 3843 c-14 -16 -53 -71 -85 -123 -49 -77 -62 -91 -69 -77 -6 9
-14 17 -18 17 -5 0 -32 -31 -60 -70 -53 -71 -85 -100 -110 -100 -26 0 -6 81
53 210 32 69 60 131 63 138 4 9 -10 12 -50 12 l-56 0 -26 -57 c-102 -220 -118
-293 -75 -338 27 -29 84 -34 129 -11 28 15 81 70 113 116 l17 25 0 -28 c1 -39
35 -101 68 -123 42 -27 130 -23 198 11 82 40 186 178 156 208 -10 10 -18 5
-39 -23 -15 -19 -43 -53 -63 -74 l-36 -40 -8 127 c-6 106 -4 131 9 158 15 30
15 34 0 51 -26 28 -80 24 -111 -9z m-4 -238 c1 -65 -17 -99 -52 -103 -34 -4
-53 10 -60 46 -5 21 5 44 46 105 l52 78 7 -38 c4 -21 7 -60 7 -88z"/>
<path d="M2504 3849 c-48 -14 -126 -90 -159 -156 -26 -50 -30 -69 -30 -136 0
-74 2 -80 28 -103 50 -43 131 -25 179 38 l17 23 11 -29 c15 -41 38 -55 86 -56
57 0 97 30 162 123 44 64 52 80 42 92 -17 21 -23 19 -43 -14 -27 -47 -117
-141 -134 -141 -26 0 -11 76 37 180 23 52 49 110 57 128 l14 34 -63 -3 c-48
-3 -69 1 -88 14 -26 18 -66 21 -116 6z m83 -37 c6 -4 16 -20 22 -35 14 -37
-16 -117 -75 -197 -51 -69 -84 -90 -110 -69 -45 37 39 253 115 294 31 17 32
17 48 7z"/>
<path d="M4273 3845 c-115 -50 -205 -221 -174 -333 15 -53 39 -78 89 -91 49
-14 116 5 169 45 26 20 49 28 78 29 50 1 102 36 142 96 23 35 26 69 5 69 -4 0
-23 -19 -41 -43 -30 -41 -77 -77 -100 -77 -5 0 3 28 19 63 48 101 34 212 -30
244 -33 17 -117 16 -157 -2z m128 -62 c8 -20 8 -45 0 -87 -8 -47 -17 -64 -42
-86 -24 -20 -32 -34 -31 -58 0 -24 -8 -38 -34 -62 -101 -88 -137 31 -57 190
56 113 140 165 164 103z"/>
<path d="M5844 3793 c-96 -214 -112 -287 -74 -335 30 -39 81 -38 143 2 26 16
50 37 53 45 8 20 24 9 24 -16 0 -55 91 -78 155 -39 39 24 138 163 133 187 -6
30 -25 24 -52 -18 -39 -59 -106 -129 -123 -129 -36 0 -18 73 62 245 25 53 45
102 45 107 0 5 -24 8 -52 6 l-53 -3 -41 -93 c-23 -51 -54 -111 -69 -133 -42
-65 -106 -129 -126 -129 -40 0 -20 71 85 303 l26 57 -55 0 -55 0 -26 -57z"/>
<path d="M6354 3755 c-111 -237 -107 -325 12 -325 56 0 107 39 167 129 40 58
47 74 37 86 -17 21 -23 19 -43 -14 -10 -17 -40 -55 -68 -85 -49 -54 -89 -72
-89 -41 0 27 37 128 85 230 25 53 45 101 45 106 0 5 -23 9 -51 9 l-50 0 -45
-95z"/>
<path d="M9045 3768 c-90 -196 -103 -262 -63 -313 19 -25 26 -27 70 -23 38 4
58 14 98 47 48 40 50 41 50 18 0 -64 94 -88 162 -42 49 34 142 173 127 192
-18 20 -23 17 -62 -40 -77 -112 -145 -151 -130 -75 6 33 78 210 115 281 l19
38 -58 -3 -57 -3 -41 -90 c-22 -49 -51 -108 -65 -130 -37 -61 -110 -135 -133
-135 -33 0 -17 69 47 210 32 69 60 131 63 138 4 9 -10 12 -50 12 l-54 0 -38
-82z"/>
<path d="M767 2683 c-3 -263 -9 -440 -17 -478 -13 -66 -34 -113 -59 -132 -28
-21 -151 -43 -292 -52 -75 -4 -141 -11 -148 -15 -16 -10 -15 -141 2 -153 7 -6
93 -7 232 -2 286 10 802 10 1080 0 143 -6 224 -5 233 2 16 12 17 143 1 153 -7
4 -75 11 -153 15 -201 12 -265 28 -310 78 -40 44 -47 124 -53 574 l-6 427
-252 0 -252 0 -6 -417z"/>
<path d="M3686 2998 c46 -132 137 -308 222 -428 86 -122 290 -327 412 -413
191 -135 506 -271 757 -326 191 -43 285 -53 548 -58 381 -8 686 26 1053 117
182 45 478 142 499 163 13 13 13 33 2 158 -25 275 -10 836 23 876 8 10 -46 13
-270 13 l-281 0 17 -37 c15 -34 17 -81 17 -408 0 -203 -4 -396 -8 -427 l-8
-57 -84 -34 c-109 -46 -254 -82 -434 -108 -195 -28 -517 -24 -685 10 -545 110
-962 466 -1175 1004 l-23 57 -309 0 -308 0 35 -102z"/>
<path d="M7780 3096 c0 -2 18 -57 41 -122 52 -154 141 -334 228 -465 321 -478
786 -711 1474 -736 l167 -6 -113 -56 c-154 -77 -509 -313 -554 -369 -19 -23
-17 -151 1 -158 8 -3 63 22 122 57 296 170 330 173 709 64 83 -24 326 -102
540 -174 446 -149 533 -173 737 -202 l147 -22 73 56 c40 31 134 92 209 136 75
44 141 87 148 95 7 8 11 36 9 68 -3 52 -4 53 -33 52 -16 0 -68 -9 -114 -19
-228 -48 -517 16 -1101 245 -301 118 -405 154 -563 194 l-128 32 108 13 c397
45 826 223 1122 464 209 170 364 364 486 608 53 104 105 224 105 241 0 4 -112
8 -249 8 l-248 0 -18 -67 c-26 -98 -81 -246 -128 -338 -129 -259 -288 -420
-532 -540 -216 -107 -388 -145 -652 -145 -236 0 -403 31 -580 108 -205 88
-421 269 -566 472 -73 103 -192 334 -228 443 l-22 67 -298 0 c-165 0 -299 -2
-299 -4z"/>
<path d="M5925 1560 c-288 -46 -500 -263 -461 -474 8 -41 55 -100 97 -122 35
-18 100 -18 142 -1 39 17 104 87 113 122 3 14 3 36 0 50 -8 31 -36 34 -36 4 0
-12 -17 -39 -39 -60 -31 -31 -46 -39 -75 -39 -63 0 -81 32 -76 130 5 97 113
235 231 294 199 100 438 54 465 -89 24 -131 -51 -244 -175 -260 -70 -10 -76
-13 -61 -30 7 -8 24 -15 39 -15 36 0 87 -33 106 -69 21 -41 19 -136 -4 -186
-23 -52 -81 -102 -126 -111 -54 -10 -133 1 -155 21 -24 22 -35 15 -26 -19 15
-61 133 -91 246 -62 84 21 136 58 173 124 56 100 34 232 -48 285 -19 12 -35
25 -35 28 0 3 19 11 41 18 26 8 60 31 89 60 39 39 50 58 59 102 34 169 -103
291 -343 303 -44 3 -108 1 -141 -4z"/>
<path d="M6135 1425 c-76 -27 -142 -112 -249 -324 -134 -262 -195 -335 -276
-329 -33 3 -35 1 -38 -28 -7 -68 76 -119 152 -94 78 25 148 134 256 395 105
254 151 330 210 355 33 14 38 25 14 34 -20 8 -22 8 -69 -9z"/>
<path d="M7159 1137 c-9 -7 -46 -61 -84 -120 -66 -106 -68 -108 -87 -90 -18
16 -20 16 -29 2 -5 -9 -29 -44 -55 -78 -44 -59 -70 -81 -95 -81 -24 0 -1 86
55 209 31 68 56 126 56 127 0 2 -25 4 -55 4 -35 0 -55 -4 -55 -12 0 -6 -11 -2
-24 11 -78 73 -226 -1 -295 -148 -20 -44 -26 -71 -26 -128 0 -62 3 -75 24 -97
43 -45 132 -30 180 30 l21 26 9 -24 c16 -41 40 -58 82 -58 54 0 90 21 135 77
21 27 41 52 45 57 5 5 13 -11 19 -36 8 -29 25 -58 46 -79 33 -32 40 -34 97
-33 96 2 165 41 227 126 l28 38 6 -38 c14 -86 81 -140 160 -128 72 12 114 28
151 58 40 33 115 139 115 162 0 29 -23 29 -44 0 -11 -16 -39 -49 -62 -73 l-41
-44 -7 120 c-6 99 -4 128 9 159 14 34 14 39 -1 56 -22 23 -76 24 -101 1 -11
-10 -47 -60 -79 -112 -32 -52 -62 -99 -66 -105 -5 -7 -13 -4 -22 9 -15 20 -15
20 -30 -1 -43 -61 -98 -124 -106 -124 -18 0 -19 265 -1 283 17 17 13 45 -8 57
-26 13 -72 12 -92 -3z m-419 -47 c10 -5 21 -24 25 -41 9 -41 -50 -163 -109
-225 -45 -47 -66 -54 -86 -29 -32 39 30 205 100 269 45 40 44 40 70 26z m390
-290 c-15 -27 -75 -28 -90 -1 -19 36 -10 66 43 141 l52 75 3 -97 c2 -57 -2
-106 -8 -118z m419 100 c1 -89 -14 -120 -59 -120 -32 0 -50 23 -50 63 0 14 21
56 48 95 55 81 60 77 61 -38z"/>
<path d="M5033 1040 l-41 -90 -29 16 c-27 16 -31 16 -76 -4 -80 -35 -137 -153
-105 -219 19 -40 77 -45 112 -10 l25 25 16 -24 c17 -27 68 -33 96 -11 23 18
79 98 79 114 0 24 -15 14 -53 -37 -21 -27 -45 -50 -54 -50 -27 0 -11 53 66
219 39 85 71 156 71 158 0 1 -15 3 -33 3 -32 0 -35 -3 -74 -90z m-72 -114 c9
-20 7 -32 -16 -74 -32 -59 -79 -107 -94 -98 -28 18 -5 107 43 164 33 38 52 41
67 8z"/>
<path d="M4235 973 c-68 -16 -143 -130 -132 -200 3 -19 11 -41 18 -49 18 -21
72 -17 99 8 l23 22 15 -22 c10 -16 25 -22 49 -22 36 0 74 30 116 90 11 16 8 4
-7 -32 l-25 -58 33 0 c32 0 35 3 75 88 45 93 84 142 113 142 23 0 23 -9 -6
-83 -36 -93 -36 -95 -26 -122 8 -21 16 -25 52 -25 37 0 47 5 84 46 42 45 61
80 50 91 -2 3 -29 -21 -60 -53 -69 -75 -82 -58 -36 47 26 57 31 79 24 98 -9
25 -13 26 -97 28 l-88 2 -31 -70 c-21 -48 -34 -67 -41 -60 -8 8 -26 -6 -60
-44 -77 -87 -84 -57 -20 84 18 40 33 76 33 79 0 2 -18 2 -39 -1 -22 -2 -43 -1
-48 3 -12 12 -46 18 -68 13z m53 -61 c4 -37 -29 -101 -71 -141 -70 -64 -59 79
11 152 34 35 56 31 60 -11z"/>
</g>
</svg>
